<svg width="872" height="807" viewBox="0 0 872 807" fill="none" xmlns="http://www.w3.org/2000/svg">
<path fill-rule="evenodd" clip-rule="evenodd" d="M638.776 151.198C754.04 215.979 771.973 357.549 726.342 472.182C687.476 569.819 570.207 605.406 454.706 613.607C305.957 624.168 111.392 645.788 63.6219 519.236C16.4445 394.256 193.988 316.993 313.801 240.326C415.666 175.143 532.614 91.5336 638.776 151.198Z" fill="#0047FF"/>
<g clip-path="url(#clip0_9_137)">
<path d="M379.094 338.865H380.478V304.74C380.478 299.502 382.789 294.478 386.902 290.774C391.016 287.07 396.595 284.989 402.412 284.989H482.705C488.522 284.989 494.101 287.07 498.215 290.774C502.328 294.478 504.639 299.502 504.639 304.74V491.952C504.639 497.19 502.328 502.214 498.215 505.918C494.101 509.622 488.522 511.702 482.705 511.702H402.412C396.595 511.702 391.016 509.622 386.902 505.918C382.789 502.214 380.478 497.19 380.478 491.952V363.155H379.094V338.865Z" fill="#3F3D56"/>
<path d="M401.527 290.128H412.008C411.526 291.192 411.342 292.346 411.472 293.49C411.603 294.633 412.043 295.729 412.755 296.683C413.467 297.637 414.428 298.418 415.554 298.959C416.681 299.499 417.937 299.782 419.213 299.782H465.212C466.488 299.782 467.744 299.499 468.871 298.959C469.997 298.418 470.958 297.637 471.67 296.683C472.382 295.729 472.823 294.633 472.953 293.49C473.083 292.346 472.899 291.192 472.417 290.128H482.206C484.357 290.128 486.487 290.509 488.474 291.251C490.462 291.992 492.268 293.078 493.789 294.448C495.31 295.817 496.516 297.443 497.34 299.233C498.163 301.022 498.587 302.94 498.587 304.877V491.815C498.587 495.727 496.861 499.479 493.789 502.245C490.717 505.011 486.551 506.565 482.206 506.565H401.527C397.183 506.565 393.016 505.011 389.944 502.245C386.873 499.479 385.147 495.727 385.147 491.815V304.878C385.147 300.966 386.873 297.214 389.944 294.448C393.016 291.682 397.183 290.128 401.527 290.128V290.128Z" fill="white"/>
<path d="M441.867 457.648C452.14 457.648 460.468 450.15 460.468 440.899C460.468 431.649 452.14 424.15 441.867 424.15C431.594 424.15 423.266 431.649 423.266 440.899C423.266 450.15 431.594 457.648 441.867 457.648Z" fill="#CCCCCC"/>
<path d="M441.867 456.813C451.628 456.813 459.541 449.688 459.541 440.899C459.541 432.11 451.628 424.985 441.867 424.985C432.106 424.985 424.193 432.11 424.193 440.899C424.193 449.688 432.106 456.813 441.867 456.813Z" fill="white"/>
<path d="M438.916 447.86L433.349 441.414L436.586 439.147L439.222 442.199L448.128 433.734L451.106 436.274L438.916 447.86Z" fill="#0047FF"/>
<path d="M397.054 473.472L407.809 468.952V471.535H432.904V475.408H407.809V477.991L397.054 473.472Z" fill="#0047FF"/>
<path d="M484.182 473.472L473.427 468.952V471.535H448.332V475.409H473.427V477.991L484.182 473.472Z" fill="#0047FF"/>
<path d="M485.302 319.985H398.174V402.381H485.302V319.985Z" fill="#E6E6E6"/>
<path d="M429.873 389.636L423.266 398.891H428.037L429.873 389.636Z" fill="#E6E6E6"/>
<path d="M437.582 347C442.852 347 447.125 343.153 447.125 338.407C447.125 333.661 442.852 329.813 437.582 329.813C432.311 329.813 428.038 333.661 428.038 338.407C428.038 343.153 432.311 347 437.582 347Z" fill="#FEB8B8"/>
<path d="M448.226 347.661C448.226 347.661 443.821 348.983 441.619 351.297C439.417 353.611 434.278 353.941 434.278 353.941C434.278 353.941 429.733 356.245 428.038 360.221C426.229 364.459 427.281 370.425 428.038 371.79C429.506 374.434 429.506 381.044 429.506 381.044L427.671 396.248C427.671 396.248 421.064 401.867 426.202 402.528C431.341 403.189 440.518 402.197 446.024 402.528C451.53 402.858 457.77 403.519 455.935 400.214C454.099 396.909 451.897 394.595 454.099 387.985C455.823 382.812 455.748 363.47 455.634 355.305C455.618 354.183 455.284 353.084 454.664 352.111C454.043 351.139 453.156 350.325 452.088 349.748L448.226 347.661Z" fill="#3F3D56"/>
<path d="M433.911 398.23C433.911 398.23 432.241 401.541 432.075 403.518C430.791 418.887 440.151 403.518 440.151 403.518V400.874L433.911 398.23Z" fill="#FEB8B8"/>
<path opacity="0.1" d="M442.904 358.072L444.005 378.234L433.335 397.693L431.525 397.073L442.537 378.894L442.904 358.072Z" fill="black"/>
<path d="M451.53 351.958L454.283 351.462C454.283 351.462 462.542 356.915 459.972 367.823C457.402 378.73 446.024 395.256 446.024 395.256C446.024 395.256 443.454 398.23 442.72 398.891C441.986 399.553 440.518 398.891 441.252 399.883C441.986 400.875 440.151 401.536 440.151 401.536C440.151 401.536 432.075 401.536 432.809 398.891C433.543 396.247 446.024 377.407 446.024 377.407L444.188 359.889C444.188 359.889 442.72 351.297 451.53 351.958Z" fill="#3F3D56"/>
<path opacity="0.1" d="M455.017 382.531V380.217L442.538 398.726L455.017 382.531Z" fill="black"/>
<path d="M430.811 330.444L429.233 329.875C429.233 329.875 432.532 326.605 437.122 326.89L435.831 325.61C435.831 325.61 438.986 324.472 441.855 327.459C443.363 329.029 445.108 330.874 446.195 332.952H447.885L447.179 334.351L449.648 335.749L447.113 335.498C447.353 336.704 447.271 337.945 446.873 339.118L446.941 340.223C446.941 340.223 444.005 336.13 444.005 335.563V336.985C444.005 336.985 442.427 335.705 442.427 334.852L441.566 335.847L441.136 334.283L435.829 335.847L436.69 334.567L433.391 334.994L434.682 333.43C434.682 333.43 430.952 335.279 430.809 336.842C430.666 338.405 428.8 340.399 428.8 340.399L427.94 338.978C427.94 338.978 426.65 332.578 430.811 330.444Z" fill="#2F2E41"/>
<path d="M318.082 369.469C316.873 365.998 314.121 362.814 310.317 361.639C306.512 360.464 299.875 361.562 298.081 364.82C295.495 369.515 296.657 375.264 298.028 380.363C298.743 380.329 299.464 380.302 300.188 380.277L301.212 377.205V380.247C306.86 380.09 312.741 380.188 318.625 380.29C319.152 376.682 319.293 372.941 318.082 369.469Z" fill="#2F2E41"/>
<path d="M266.18 501.753L270.932 503.547L280.874 487.897L273.861 485.251L266.18 501.753Z" fill="#A0616A"/>
<path d="M263.038 505.444L278.359 511.225L278.44 511.051C279.103 509.627 279.11 508.024 278.46 506.595C277.811 505.166 276.558 504.028 274.976 503.431L265.619 499.9L263.038 505.444Z" fill="#2F2E41"/>
<path d="M335.86 427.83C336.157 427.444 336.356 427.005 336.444 426.542C336.532 426.08 336.506 425.606 336.368 425.153C336.23 424.701 335.984 424.281 335.646 423.924C335.309 423.566 334.888 423.28 334.414 423.084L324.202 395.335L317.362 398.62L329.552 424.863C329.239 425.601 329.238 426.418 329.55 427.157C329.861 427.896 330.463 428.506 331.241 428.872C332.019 429.238 332.919 429.334 333.771 429.142C334.622 428.95 335.366 428.483 335.86 427.83V427.83Z" fill="#A0616A"/>
<path d="M323.269 506.728H328.421L330.871 488.835H323.267L323.269 506.728Z" fill="#A0616A"/>
<path d="M321.955 511.225H338.567V511.036C338.567 509.492 337.886 508.011 336.673 506.919C335.461 505.827 333.816 505.213 332.101 505.212H321.955L321.955 511.225Z" fill="#2F2E41"/>
<path d="M302.613 404.955L301.445 407.688L301.679 410.421L324.092 407.899L323.393 405.586L320.825 402.853L302.613 404.955Z" fill="#A0616A"/>
<path d="M309.836 380.362C314.343 380.362 317.996 377.072 317.996 373.014C317.996 368.956 314.343 365.667 309.836 365.667C305.33 365.667 301.677 368.956 301.677 373.014C301.677 377.072 305.33 380.362 309.836 380.362Z" fill="#A0616A"/>
<path d="M301.321 407.884L323.546 405.756L324.508 402.92C324.807 402.551 327.628 398.951 327.002 395.352C326.847 394.504 326.5 393.694 325.983 392.972C325.466 392.25 324.789 391.632 323.995 391.155L318.593 385.458L313.84 382.91L304.468 382.067L304.436 382.073L296.022 383.787L296.125 397.675L301.321 407.884Z" fill="#E6E6E6"/>
<path d="M322.987 409.356L329.214 408.69L329.198 408.514C329.14 407.895 327.779 393.314 326.384 389.965C324.959 386.544 318.788 385.479 318.526 385.434L318.45 385.422L317.079 386.163L320.864 396.812L322.987 409.356Z" fill="#E6E6E6"/>
<path d="M301.074 410.378V414.994C301.074 414.994 295.072 422.017 298.306 427.421C298.306 427.421 291.381 439.059 290.921 443.216L284.453 462.337C284.453 462.337 268.296 476.886 269.683 487.278L268.759 490.603L279.378 494.76L281.687 491.85L299.691 464L314.925 438.644L317.694 468.572C317.694 468.572 315.848 491.85 320.926 494.346L321.388 498.087H332.163V494.53C332.163 494.53 336.16 481.875 333.852 472.314L334.775 431.994C334.775 431.994 330.62 414.952 325.543 412.042L323.696 407.883L301.074 410.378Z" fill="#2F2E41"/>
<path d="M309.207 419.025C309.019 419.063 308.834 419.115 308.655 419.179L294.409 410.35L294.735 406.578L288.478 405.392L287.18 412.018C287.076 412.553 287.166 413.105 287.44 413.59C287.713 414.075 288.153 414.467 288.695 414.708L306.34 422.544C306.407 423.21 306.698 423.842 307.174 424.357C307.65 424.871 308.288 425.242 309.004 425.422C309.72 425.601 310.48 425.58 311.182 425.361C311.885 425.143 312.497 424.736 312.936 424.197C313.376 423.657 313.623 423.01 313.644 422.341C313.666 421.672 313.46 421.013 313.055 420.452C312.651 419.89 312.066 419.453 311.378 419.199C310.691 418.944 309.934 418.884 309.207 419.026V419.025Z" fill="#A0616A"/>
<path d="M294.544 410.837L297.444 393.42L299.824 384.423L296.268 383.754C296.171 383.722 293.276 382.84 290.936 384.259C289.254 385.282 288.322 387.219 288.166 390.02L287.225 409.95L294.544 410.837Z" fill="#E6E6E6"/>
<path d="M315.443 363.447C313.875 362.586 312.079 362.12 310.243 362.098C308.407 362.077 306.598 362.499 305.006 363.323C303.413 364.146 302.095 365.339 301.19 366.778C300.285 368.216 299.826 369.847 299.861 371.501C304.422 371.689 309.213 371.737 314.072 371.747L315.22 369.217L315.897 371.749C317.377 371.749 318.86 371.747 320.346 371.744C320.407 370.095 319.986 368.461 319.125 367.005C318.265 365.549 316.995 364.322 315.443 363.447Z" fill="#2F2E41"/>
<path d="M235.181 511.703H536.912C537.349 511.703 537.704 511.526 537.704 511.309C537.704 511.092 537.349 510.916 536.912 510.916H235.181C234.744 510.916 234.389 511.092 234.389 511.309C234.389 511.526 234.744 511.703 235.181 511.703Z" fill="#CBCBCB"/>
</g>
<defs>
<clipPath id="clip0_9_137">
<rect width="303.314" height="226.714" fill="white" transform="translate(234.389 284.989)"/>
</clipPath>
</defs>
</svg>
